<svg xmlns="http://www.w3.org/2000/svg" viewBox="0 0 400 300" width="400" height="300">
  <defs>
    <linearGradient id="b1" x1="0" y1="0" x2="1" y2="1">
      <stop offset="0%" stop-color="#F0FDFA"/><stop offset="100%" stop-color="#CCECE9"/>
    </linearGradient>
    <linearGradient id="g1" x1="0" y1="0" x2="0" y2="1">
      <stop offset="0%" stop-color="#FFD700"/><stop offset="100%" stop-color="#B8860B"/>
    </linearGradient>
  </defs>
  <rect width="400" height="300" fill="url(#b1)"/>
  <g transform="translate(200,160)">
    <ellipse cx="0" cy="100" rx="90" ry="12" fill="#0F766E" opacity="0.08"/>
    <path d="M-65,-55 Q-78,-10 -52,35 L52,35 Q78,-10 65,-55 Z" fill="url(#g1)" stroke="#8B6914" stroke-width="2"/>
    <path d="M-65,-55 Q-95,-55 -95,-30 Q-95,-5 -72,-5" fill="none" stroke="#B8860B" stroke-width="7" stroke-linecap="round"/>
    <path d="M65,-55 Q95,-55 95,-30 Q95,-5 72,-5" fill="none" stroke="#B8860B" stroke-width="7" stroke-linecap="round"/>
    <rect x="-38" y="35" width="76" height="22" fill="#B8860B"/>
    <rect x="-28" y="57" width="56" height="16" fill="#DAA520"/>
    <circle cx="0" cy="-20" r="8" fill="#8B6914"/>
  </g>
  <text x="200" y="260" text-anchor="middle" font-family="Arial" font-size="14" fill="#0F766E" font-weight="600">优秀干部</text>
</svg>